<?xml version="1.0" standalone="no"?>
<!DOCTYPE svg PUBLIC "-//W3C//DTD SVG 20010904//EN"
 "http://www.w3.org/TR/2001/REC-SVG-20010904/DTD/svg10.dtd">
<svg version="1.0" xmlns="http://www.w3.org/2000/svg"
 width="700.000000pt" height="700.000000pt" viewBox="0 0 700.000000 700.000000"
 preserveAspectRatio="xMidYMid meet">
<metadata>
Created by potrace 1.11, written by Peter Selinger 2001-2013
</metadata>
<g transform="translate(0.000000,700.000000) scale(0.100000,-0.100000)"
fill="#000000" stroke="none">
<path d="M814 5831 c-54 -25 -75 -49 -135 -153 l-50 -87 -52 29 c-67 36 -113
45 -168 30 -59 -16 -104 -66 -157 -173 -28 -57 -48 -87 -59 -87 -38 0 -103
-43 -132 -87 -96 -145 -71 -350 58 -465 27 -24 149 -105 272 -181 123 -76 343
-213 489 -304 277 -174 302 -184 352 -151 49 32 61 103 25 149 -7 9 -133 92
-282 184 -148 92 -290 181 -315 196 -25 16 -126 79 -224 141 -99 62 -188 125
-198 139 -25 33 -36 86 -27 127 11 56 -26 69 334 -118 88 -45 225 -116 305
-158 80 -41 195 -100 255 -132 61 -31 187 -97 280 -145 94 -48 220 -114 280
-145 61 -32 178 -92 260 -135 161 -83 336 -174 548 -284 168 -87 356 -185 572
-296 94 -49 211 -110 260 -136 l90 -47 1 -256 c0 -141 -1 -256 -4 -256 -3 0
-1227 761 -1407 875 -85 54 -158 100 -177 110 -10 6 -57 35 -105 65 -95 59
-131 66 -177 36 -52 -33 -58 -113 -13 -153 12 -11 263 -170 557 -353 294 -183
538 -336 543 -339 4 -4 -52 -38 -125 -75 -73 -38 -182 -94 -243 -126 -176 -92
-369 -192 -526 -273 -81 -42 -160 -84 -176 -94 -110 -67 -207 -209 -228 -335
-28 -161 -88 -251 -250 -373 -61 -45 -133 -107 -161 -137 -150 -164 -195 -414
-113 -624 28 -70 57 -96 116 -101 47 -4 53 -1 293 149 274 172 373 233 525
328 58 36 221 138 363 226 452 284 1304 814 1306 814 1 0 3 -30 4 -66 2 -80
26 -120 77 -130 64 -12 111 17 121 75 4 20 8 461 9 981 l1 945 22 56 c49 123
47 176 47 -1186 l0 -1275 -37 0 c-35 0 -38 2 -38 30 0 18 -11 41 -27 60 -23
26 -36 31 -72 32 -38 0 -49 -4 -73 -31 -31 -35 -30 -30 -30 -188 1 -88 4 -119
18 -142 35 -60 116 -69 181 -21 l42 31 42 -31 c71 -51 149 -38 184 30 12 24
15 84 15 340 0 170 4 310 8 310 5 0 148 -87 318 -193 170 -106 514 -321 764
-476 250 -156 484 -303 520 -326 36 -23 72 -45 80 -48 8 -4 119 -73 245 -153
225 -143 231 -145 278 -141 76 7 110 51 142 184 35 143 6 322 -72 451 -51 83
-107 139 -229 228 -144 105 -219 210 -244 345 -24 125 -80 233 -161 306 -59
53 -41 43 -529 296 -85 44 -191 99 -235 122 -44 23 -149 77 -232 120 -84 43
-151 81 -148 83 2 3 93 60 202 128 109 67 230 143 268 167 39 25 180 113 315
197 397 247 692 431 740 461 79 51 387 242 659 411 145 89 285 182 312 206 30
27 61 68 81 110 30 60 33 75 33 157 0 76 -4 99 -26 145 -15 30 -35 65 -45 76
-27 31 -85 64 -111 64 -19 0 -31 17 -67 88 -56 112 -85 146 -141 168 -56 21
-107 14 -180 -25 l-55 -29 -31 56 c-74 134 -99 162 -166 188 -56 22 -99 16
-323 -40 -102 -26 -192 -49 -200 -51 -203 -47 -1002 -253 -1071 -275 -254 -84
-547 -263 -736 -449 -53 -52 -67 -61 -98 -61 -20 0 -47 -7 -61 -16 -29 -20
-136 -155 -184 -236 -32 -53 -50 -71 -50 -50 0 5 -29 48 -64 96 -256 351 -604
602 -1016 731 -141 45 -1440 365 -1477 365 -21 0 -56 -9 -79 -19z m159 -205
c12 -2 69 -16 127 -31 58 -15 112 -28 120 -30 14 -3 169 -41 200 -49 8 -2 205
-52 437 -110 481 -121 533 -137 698 -216 285 -138 526 -347 703 -611 63 -94
148 -257 138 -266 -3 -4 -13 2 -20 13 -8 10 -26 33 -41 49 -265 291 -532 498
-860 665 -104 53 -342 155 -390 167 -5 1 -63 18 -129 37 -117 34 -129 35 -173
14 -29 -14 -54 -67 -47 -104 9 -49 41 -71 154 -103 355 -101 731 -298 995
-523 75 -63 225 -211 221 -216 -3 -2 -24 7 -48 21 -41 24 -162 86 -523 272
-93 48 -210 109 -260 135 -49 26 -175 91 -280 145 -104 54 -235 121 -290 150
-55 29 -167 87 -250 130 -82 43 -199 103 -260 135 -60 32 -170 88 -242 126
-73 37 -133 72 -133 78 0 5 18 40 40 78 38 63 42 67 66 58 13 -5 35 -12 47
-14z m5158 -31 c17 -30 35 -58 40 -61 5 -3 9 -13 9 -23 0 -12 -41 -38 -142
-91 -79 -40 -188 -96 -243 -125 -55 -29 -167 -87 -250 -130 -82 -43 -160 -87
-172 -98 -50 -45 -33 -135 30 -162 52 -22 26 -32 482 205 61 31 173 90 250
130 77 40 195 101 262 136 67 35 125 64 130 64 14 0 67 -110 57 -119 -5 -5
-99 -54 -209 -111 -221 -114 -374 -193 -540 -280 -60 -32 -180 -94 -267 -138
-86 -45 -216 -112 -290 -150 -73 -38 -198 -103 -278 -144 -165 -86 -370 -192
-545 -283 -129 -67 -412 -214 -510 -264 -33 -17 -61 -31 -63 -31 -1 0 -2 34 0
76 l3 77 75 39 c41 22 167 87 280 145 216 112 390 202 555 288 55 29 142 74
193 100 105 54 132 82 132 134 -1 52 -48 101 -99 101 -19 0 -336 -157 -596
-295 -33 -18 -145 -76 -250 -130 -104 -54 -215 -111 -245 -127 l-55 -30 100
99 c55 54 138 129 185 166 174 140 435 297 607 366 26 10 73 29 103 42 30 12
122 43 204 68 115 36 153 52 168 71 52 70 9 162 -76 162 -17 0 -78 -14 -136
-31 -302 -87 -609 -236 -860 -414 -69 -50 -229 -175 -250 -197 -37 -39 -40
-35 -40 52 l0 85 88 86 c202 200 405 327 665 417 67 23 1128 297 1227 316 44
9 228 57 237 63 2 0 17 -24 34 -54z m-5528 -219 c120 -63 247 -129 502 -261
384 -199 439 -228 850 -440 94 -48 215 -111 270 -140 55 -29 172 -90 260 -135
152 -78 242 -125 640 -332 94 -49 193 -100 221 -115 l51 -26 0 -73 c1 -41 -2
-74 -6 -74 -3 0 -22 8 -41 18 -40 22 -297 155 -515 267 -149 77 -320 165 -570
295 -71 37 -197 102 -280 145 -82 43 -199 104 -260 135 -120 63 -293 152 -540
280 -88 45 -209 108 -270 140 -60 32 -195 101 -300 155 -104 54 -194 101 -198
105 -9 8 43 120 56 120 5 0 63 -29 130 -64z m6182 -218 c21 -65 -2 -140 -57
-181 -27 -20 -289 -187 -350 -222 -9 -5 -60 -37 -113 -70 -52 -33 -103 -64
-113 -70 -10 -5 -65 -40 -122 -77 -58 -36 -460 -287 -895 -558 -434 -271 -806
-502 -825 -514 -19 -13 -59 -38 -89 -56 l-54 -34 -143 73 -144 73 0 81 0 82
53 28 c28 15 149 78 267 139 118 61 260 134 315 163 55 29 177 92 270 140 94
48 220 113 280 145 61 32 187 97 280 145 94 48 220 113 280 145 61 31 182 95
270 140 88 45 210 108 270 140 61 31 198 103 305 158 107 55 215 112 240 126
56 31 67 31 75 4z m-2879 -1877 c5 -4 95 -52 199 -106 105 -54 246 -127 315
-163 207 -107 389 -201 505 -262 61 -32 182 -95 270 -140 225 -116 254 -148
296 -316 50 -206 131 -322 324 -466 147 -110 187 -162 218 -282 14 -50 16
-151 4 -163 -4 -3 -540 328 -1009 624 -46 29 -92 57 -103 63 -11 6 -76 46
-145 90 -69 43 -159 100 -200 125 -41 26 -130 81 -198 123 -67 42 -208 130
-312 195 l-190 119 0 284 c0 156 4 284 8 284 4 0 12 -4 18 -9z m-858 -282
c100 -63 198 -123 217 -133 19 -11 35 -22 35 -26 0 -3 -35 -27 -77 -54 -76
-46 -543 -337 -633 -395 -25 -15 -310 -194 -635 -396 -324 -202 -619 -386
-654 -409 -36 -22 -73 -45 -83 -51 -10 -5 -70 -43 -134 -83 -64 -40 -119 -70
-122 -67 -10 10 -8 121 3 165 29 110 77 170 220 278 120 90 182 154 235 242
42 69 84 179 94 243 17 106 85 192 197 249 30 15 135 70 234 121 99 52 272
141 385 200 113 58 270 140 350 181 127 66 147 73 165 62 11 -7 102 -64 203
-127z"/>
</g>
</svg>
